<svg width="24" height="24" viewBox="0 0 24 24" fill="none" xmlns="http://www.w3.org/2000/svg">
<mask id="mask0_693_14354" style="mask-type:alpha" maskUnits="userSpaceOnUse" x="0" y="0" width="24" height="24">
<path d="M0 0H24V24H0V0Z" fill="#D9D9D9"/>
</mask>
<g mask="url(#mask0_693_14354)">
<path d="M5 23.7C4.45 23.7 3.97917 23.5042 3.5875 23.1125C3.19583 22.7208 3 22.25 3 21.7V7.7C3 7.15 3.19583 6.67917 3.5875 6.2875C3.97917 5.89584 4.45 5.7 5 5.7H13.925L11.925 7.7H5V21.7H19V14.75L21 12.75V21.7C21 22.25 20.8042 22.7208 20.4125 23.1125C20.0208 23.5042 19.55 23.7 19 23.7H5ZM16.175 6.275L17.6 7.675L11 14.275V15.7H12.4L19.025 9.075L20.45 10.475L13.825 17.1C13.6417 17.2833 13.4292 17.4292 13.1875 17.5375C12.9458 17.6458 12.6917 17.7 12.425 17.7H10C9.71667 17.7 9.47917 17.6042 9.2875 17.4125C9.09583 17.2208 9 16.9833 9 16.7V14.275C9 14.0083 9.05 13.7542 9.15 13.5125C9.25 13.2708 9.39167 13.0583 9.575 12.875L16.175 6.275ZM20.45 10.475L16.175 6.275L18.675 3.775C19.075 3.375 19.5542 3.175 20.1125 3.175C20.6708 3.175 21.1417 3.375 21.525 3.775L22.925 5.2C23.3083 5.58334 23.5 6.05 23.5 6.6C23.5 7.15 23.3083 7.61667 22.925 8L20.45 10.475Z" fill="white"/>
</g>
</svg>
